<svg width="24" height="24" viewBox="0 0 24 24" fill="none" xmlns="http://www.w3.org/2000/svg">
<path d="M20.52 0.96C20.064 0.36 19.356 0 18.6 0H5.4C4.644 0 3.924 0.36 3.48 0.96L0.24 5.28C0.0840001 5.484 0 5.736 0 6V7.2C0 8.448 0.492 9.576 1.272 10.428C1.236 10.548 1.2 10.668 1.2 10.8V21.6C1.2 22.92 2.28 24 3.6 24H20.4C21.72 24 22.8 22.92 22.8 21.6V10.8C22.8 10.668 22.764 10.548 22.728 10.428C23.508 9.576 24 8.448 24 7.2V6C24 5.736 23.916 5.484 23.76 5.28L20.52 0.96ZM18.6 2.4L21.6 6.396V7.2C21.6 8.52 20.52 9.6 19.2 9.6C17.88 9.6 16.8 8.52 16.8 7.2V6C16.8 5.904 16.788 5.808 16.764 5.712L15.936 2.4H18.6ZM10.536 2.4H13.464L14.4 6.144V7.2C14.4 8.52 13.32 9.6 12 9.6C10.68 9.6 9.6 8.52 9.6 7.2V6.144L10.536 2.4ZM2.4 6.396L5.4 2.4H8.064L7.236 5.712C7.212 5.808 7.2 5.904 7.2 6V7.2C7.2 8.52 6.12 9.6 4.8 9.6C3.48 9.6 2.4 8.52 2.4 7.2V6.396ZM3.6 21.6V11.832C3.984 11.928 4.38 12 4.8 12C6.24 12 7.524 11.352 8.4 10.344C9.276 11.352 10.56 12 12 12C13.44 12 14.724 11.352 15.6 10.344C16.476 11.352 17.76 12 19.2 12C19.62 12 20.016 11.928 20.4 11.832V21.6H3.6Z" fill="#666666"/>
</svg>
