<svg width="40" height="40" viewBox="0 0 40 40" fill="none" xmlns="http://www.w3.org/2000/svg">
<g clip-path="url(#clip0_1337_742)">
<path d="M38.75 18.75C38.75 17.7651 38.556 16.7898 38.1791 15.8799C37.8022 14.9699 37.2497 14.1431 36.5533 13.4467C35.8569 12.7503 35.0301 12.1978 34.1201 11.8209C33.2102 11.444 32.2349 11.25 31.25 11.25C30.2651 11.25 29.2898 11.444 28.3799 11.8209C27.4699 12.1978 26.6431 12.7503 25.9467 13.4467C25.2503 14.1431 24.6978 14.9699 24.3209 15.8799C23.944 16.7898 23.75 17.7651 23.75 18.75H38.75ZM38.75 18.75H17.8967M5 6.25C5 7.57608 5.52678 8.84785 6.46447 9.78553C7.40215 10.7232 8.67392 11.25 10 11.25C11.3261 11.25 12.5979 10.7232 13.5355 9.78553C14.4732 8.84785 15 7.57608 15 6.25C15 4.92392 14.4732 3.65215 13.5355 2.71447C12.5979 1.77678 11.3261 1.25 10 1.25C8.67392 1.25 7.40215 1.77678 6.46447 2.71447C5.52678 3.65215 5 4.92392 5 6.25ZM18.75 22.5C18.75 20.1794 17.8281 17.9538 16.1872 16.3128C14.5462 14.6719 12.3206 13.75 10 13.75C7.67936 13.75 5.45376 14.6719 3.81282 16.3128C2.17187 17.9538 1.25 20.1794 1.25 22.5V26.25H5L6.25 38.75H13.75L15 26.25H18.75V22.5ZM26.875 5.625C26.875 6.78532 27.3359 7.89812 28.1564 8.71859C28.9769 9.53906 30.0897 10 31.25 10C32.4103 10 33.5231 9.53906 34.3436 8.71859C35.1641 7.89812 35.625 6.78532 35.625 5.625C35.625 4.46468 35.1641 3.35188 34.3436 2.53141C33.5231 1.71094 32.4103 1.25 31.25 1.25C30.0897 1.25 28.9769 1.71094 28.1564 2.53141C27.3359 3.35188 26.875 4.46468 26.875 5.625Z" stroke="#03524D" stroke-width="2" stroke-linecap="round" stroke-linejoin="round"/>
</g>
<defs>
<clipPath id="clip0_1337_742">
<rect width="40" height="40" fill="white"/>
</clipPath>
</defs>
</svg>
